{
  "asset": {
    "version": "2.0",
    "generator": "THREE.GLTFExporter r176"
  },
  "scenes": [
    {
      "name": "AuxScene",
      "nodes": [
        20
      ]
    }
  ],
  "scene": 0,
  "nodes": [
    {
      "translation": [
        -197,
        -39.71630096435547,
        -2.5
      ],
      "mesh": 0
    },
    {
      "children": [
        0
      ]
    },
    {
      "translation": [
        -197,
        -39.71630096435547,
        -2.5
      ],
      "scale": [
        1.01,
        1.01,
        1.06
      ],
      "mesh": 1
    },
    {
      "children": [
        2
      ]
    },
    {
      "translation": [
        -197,
        -39.71630096435547,
        -2.5
      ],
      "scale": [
        1.01,
        1.01,
        1.06
      ],
      "mesh": 2
    },
    {
      "children": [
        4
      ]
    },
    {
      "translation": [
        -197,
        -39.71630096435547,
        -2.5
      ],
      "scale": [
        1.01,
        1.01,
        1.06
      ],
      "mesh": 3
    },
    {
      "children": [
        6
      ]
    },
    {
      "translation": [
        -197,
        -39.71630096435547,
        -2.5
      ],
      "scale": [
        1.01,
        1.01,
        1.06
      ],
      "mesh": 4
    },
    {
      "children": [
        8
      ]
    },
    {
      "translation": [
        -197,
        -39.71630096435547,
        -2.5
      ],
      "scale": [
        1.01,
        1.01,
        1.06
      ],
      "mesh": 5
    },
    {
      "children": [
        10
      ]
    },
    {
      "translation": [
        -197,
        -39.71630096435547,
        -2.5
      ],
      "scale": [
        1.01,
        1.01,
        1.06
      ],
      "mesh": 6
    },
    {
      "children": [
        12
      ]
    },
    {
      "translation": [
        -197,
        -39.71630096435547,
        -2.5
      ],
      "scale": [
        1.01,
        1.01,
        1.06
      ],
      "mesh": 7
    },
    {
      "children": [
        14
      ]
    },
    {
      "rotation": [
        0,
        0.3826834323650898,
        0,
        0.9238795325112867
      ],
      "scale": [
        0.25380710659898476,
        -0.25380710659898476,
        0.25380710659898476
      ],
      "children": [
        1,
        3,
        5,
        7,
        9,
        11,
        13,
        15
      ]
    },
    {
      "children": [
        16
      ]
    },
    {
      "translation": [
        -0.000005801877403399658,
        0,
        0.000005780483053996477
      ],
      "children": [
        17
      ]
    },
    {
      "children": [
        18
      ]
    },
    {
      "children": [
        19
      ]
    }
  ],
  "bufferViews": [
    {
      "buffer": 0,
      "byteOffset": 0,
      "byteLength": 5616,
      "target": 34962,
      "byteStride": 12
    },
    {
      "buffer": 0,
      "byteOffset": 5616,
      "byteLength": 3744,
      "target": 34962,
      "byteStride": 8
    },
    {
      "buffer": 0,
      "byteOffset": 9360,
      "byteLength": 5616,
      "target": 34962,
      "byteStride": 12
    },
    {
      "buffer": 0,
      "byteOffset": 14976,
      "byteLength": 9936,
      "target": 34962,
      "byteStride": 12
    },
    {
      "buffer": 0,
      "byteOffset": 24912,
      "byteLength": 6624,
      "target": 34962,
      "byteStride": 8
    },
    {
      "buffer": 0,
      "byteOffset": 31536,
      "byteLength": 9936,
      "target": 34962,
      "byteStride": 12
    },
    {
      "buffer": 0,
      "byteOffset": 41472,
      "byteLength": 5616,
      "target": 34962,
      "byteStride": 12
    },
    {
      "buffer": 0,
      "byteOffset": 47088,
      "byteLength": 3744,
      "target": 34962,
      "byteStride": 8
    },
    {
      "buffer": 0,
      "byteOffset": 50832,
      "byteLength": 5616,
      "target": 34962,
      "byteStride": 12
    },
    {
      "buffer": 0,
      "byteOffset": 56448,
      "byteLength": 2736,
      "target": 34962,
      "byteStride": 12
    },
    {
      "buffer": 0,
      "byteOffset": 59184,
      "byteLength": 1824,
      "target": 34962,
      "byteStride": 8
    },
    {
      "buffer": 0,
      "byteOffset": 61008,
      "byteLength": 2736,
      "target": 34962,
      "byteStride": 12
    },
    {
      "buffer": 0,
      "byteOffset": 63744,
      "byteLength": 4896,
      "target": 34962,
      "byteStride": 12
    },
    {
      "buffer": 0,
      "byteOffset": 68640,
      "byteLength": 3264,
      "target": 34962,
      "byteStride": 8
    },
    {
      "buffer": 0,
      "byteOffset": 71904,
      "byteLength": 4896,
      "target": 34962,
      "byteStride": 12
    },
    {
      "buffer": 0,
      "byteOffset": 76800,
      "byteLength": 51696,
      "target": 34962,
      "byteStride": 12
    },
    {
      "buffer": 0,
      "byteOffset": 128496,
      "byteLength": 34464,
      "target": 34962,
      "byteStride": 8
    },
    {
      "buffer": 0,
      "byteOffset": 162960,
      "byteLength": 51696,
      "target": 34962,
      "byteStride": 12
    },
    {
      "buffer": 0,
      "byteOffset": 214656,
      "byteLength": 71856,
      "target": 34962,
      "byteStride": 12
    },
    {
      "buffer": 0,
      "byteOffset": 286512,
      "byteLength": 47904,
      "target": 34962,
      "byteStride": 8
    },
    {
      "buffer": 0,
      "byteOffset": 334416,
      "byteLength": 71856,
      "target": 34962,
      "byteStride": 12
    },
    {
      "buffer": 0,
      "byteOffset": 406272,
      "byteLength": 210096,
      "target": 34962,
      "byteStride": 12
    },
    {
      "buffer": 0,
      "byteOffset": 616368,
      "byteLength": 140064,
      "target": 34962,
      "byteStride": 8
    },
    {
      "buffer": 0,
      "byteOffset": 756432,
      "byteLength": 210096,
      "target": 34962,
      "byteStride": 12
    }
  ],
  "buffers": [
    {
      "byteLength": 966528,
      "uri": "data:application/octet-stream;base64,"
    }
  ],
  "accessors": [
    {
      "bufferView": 0,
      "componentType": 5126,
      "count": 468,
      "max": [
        331.0469970703125,
        79.83899688720703,
        6
      ],
      "min": [
        261.41900634765625,
        -0.46692779660224915,
        -1
      ],
      "type": "VEC3"
    },
    {
      "bufferView": 1,
      "componentType": 5126,
      "count": 468,
      "max": [
        331.0469970703125,
        79.33899688720703
      ],
      "min": [
        -0.46692779660224915,
        -5
      ],
      "type": "VEC2"
    },
    {
      "bufferView": 2,
      "componentType": 5126,
      "count": 468,
      "max": [
        1,
        1,
        1
      ],
      "min": [
        -1,
        -1,
        -1
      ],
      "type": "VEC3"
    },
    {
      "bufferView": 3,
      "componentType": 5126,
      "count": 828,
      "max": [
        149.552001953125,
        79.83899688720703,
        6
      ],
      "min": [
        79.92430114746094,
        -0.46692779660224915,
        -1
      ],
      "type": "VEC3"
    },
    {
      "bufferView": 4,
      "componentType": 5126,
      "count": 828,
      "max": [
        149.552001953125,
        79.33899688720703
      ],
      "min": [
        -0.46692779660224915,
        -5
      ],
      "type": "VEC2"
    },
    {
      "bufferView": 5,
      "componentType": 5126,
      "count": 828,
      "max": [
        1,
        1,
        1
      ],
      "min": [
        -1,
        -1,
        -1
      ],
      "type": "VEC3"
    },
    {
      "bufferView": 6,
      "componentType": 5126,
      "count": 468,
      "max": [
        247.8157958984375,
        79.87210083007812,
        6
      ],
      "min": [
        164.86825561523438,
        -0.4338513910770416,
        -1
      ],
      "type": "VEC3"
    },
    {
      "bufferView": 7,
      "componentType": 5126,
      "count": 468,
      "max": [
        247.8157958984375,
        79.37210083007812
      ],
      "min": [
        -0.4338513910770416,
        -5
      ],
      "type": "VEC2"
    },
    {
      "bufferView": 8,
      "componentType": 5126,
      "count": 468,
      "max": [
        0.7817155718803406,
        0.9999460577964783,
        1
      ],
      "min": [
        -0.7803212404251099,
        -0.9999605417251587,
        -1
      ],
      "type": "VEC3"
    },
    {
      "bufferView": 9,
      "componentType": 5126,
      "count": 228,
      "max": [
        202.24171447753906,
        79.93260192871094,
        6
      ],
      "min": [
        164.81719970703125,
        44.915794372558594,
        -1
      ],
      "type": "VEC3"
    },
    {
      "bufferView": 10,
      "componentType": 5126,
      "count": 228,
      "max": [
        201.60000610351562,
        79.43260192871094
      ],
      "min": [
        44.915794372558594,
        -5
      ],
      "type": "VEC2"
    },
    {
      "bufferView": 11,
      "componentType": 5126,
      "count": 228,
      "max": [
        0.7790964841842651,
        0.9999460577964783,
        1
      ],
      "min": [
        -0.7808216214179993,
        -0.6296308636665344,
        -1
      ],
      "type": "VEC3"
    },
    {
      "bufferView": 12,
      "componentType": 5126,
      "count": 408,
      "max": [
        81.54480743408203,
        79.83899688720703,
        6
      ],
      "min": [
        -0.5,
        -0.5,
        -1
      ],
      "type": "VEC3"
    },
    {
      "bufferView": 13,
      "componentType": 5126,
      "count": 408,
      "max": [
        81.54480743408203,
        79.33899688720703
      ],
      "min": [
        -0.5,
        -5
      ],
      "type": "VEC2"
    },
    {
      "bufferView": 14,
      "componentType": 5126,
      "count": 408,
      "max": [
        0.9999909400939941,
        1,
        1
      ],
      "min": [
        -1,
        -1,
        -1
      ],
      "type": "VEC3"
    },
    {
      "bufferView": 15,
      "componentType": 5126,
      "count": 4308,
      "max": [
        337.70465087890625,
        79.35494995117188,
        6
      ],
      "min": [
        329.4996337890625,
        71.28329467773438,
        -1
      ],
      "type": "VEC3"
    },
    {
      "bufferView": 16,
      "componentType": 5126,
      "count": 4308,
      "max": [
        337.2040100097656,
        78.85459899902344
      ],
      "min": [
        72.46019744873047,
        -5
      ],
      "type": "VEC2"
    },
    {
      "bufferView": 17,
      "componentType": 5126,
      "count": 4308,
      "max": [
        0.9989588856697083,
        0.9994901418685913,
        1
      ],
      "min": [
        -0.9993129372596741,
        -0.9990277290344238,
        -1
      ],
      "type": "VEC3"
    },
    {
      "bufferView": 18,
      "componentType": 5126,
      "count": 5988,
      "max": [
        363.37200927734375,
        79.45474243164062,
        6
      ],
      "min": [
        341.1419677734375,
        44.9453010559082,
        -1
      ],
      "type": "VEC3"
    },
    {
      "bufferView": 19,
      "componentType": 5126,
      "count": 5988,
      "max": [
        363.37200927734375,
        78.95459747314453
      ],
      "min": [
        44.9453010559082,
        -5
      ],
      "type": "VEC2"
    },
    {
      "bufferView": 20,
      "componentType": 5126,
      "count": 5988,
      "max": [
        1,
        0.9997402429580688,
        1
      ],
      "min": [
        -1,
        -1,
        -1
      ],
      "type": "VEC3"
    },
    {
      "bufferView": 21,
      "componentType": 5126,
      "count": 17508,
      "max": [
        394.5002136230469,
        79.5000991821289,
        6
      ],
      "min": [
        367.7414245605469,
        44.49988555908203,
        -1
      ],
      "type": "VEC3"
    },
    {
      "bufferView": 22,
      "componentType": 5126,
      "count": 17508,
      "max": [
        394.05126953125,
        79
      ],
      "min": [
        48.22621154785156,
        -5
      ],
      "type": "VEC2"
    },
    {
      "bufferView": 23,
      "componentType": 5126,
      "count": 17508,
      "max": [
        0.9996998906135559,
        0.9999982714653015,
        1
      ],
      "min": [
        -0.9993908405303955,
        -0.9999969601631165,
        -1
      ],
      "type": "VEC3"
    }
  ],
  "materials": [
    {
      "pbrMetallicRoughness": {
        "metallicFactor": 0.9,
        "roughnessFactor": 0.2
      },
      "doubleSided": true,
      "extras": {
        "originalProperties": {
          "color": 16777215,
          "roughness": 0.2,
          "metalness": 0.9,
          "clearcoat": 1,
          "clearcoatRoughness": 0.05,
          "transmission": 0,
          "ior": 2.3333333333333335,
          "opacity": 1,
          "sheen": 0,
          "sheenRoughness": 1
        },
        "isHole": false
      },
      "extensions": {
        "KHR_materials_ior": {
          "ior": 2.3333333333333335
        },
        "KHR_materials_clearcoat": {
          "clearcoatFactor": 1,
          "clearcoatRoughnessFactor": 0.05
        }
      }
    },
    {
      "pbrMetallicRoughness": {
        "metallicFactor": 0.9,
        "roughnessFactor": 0.2
      },
      "alphaMode": "BLEND",
      "doubleSided": true,
      "extras": {
        "originalProperties": {
          "color": 16777215,
          "roughness": 0.2,
          "metalness": 0.9,
          "clearcoat": 1,
          "clearcoatRoughness": 0.05,
          "transmission": 0,
          "ior": 2.3333333333333335,
          "opacity": 1,
          "sheen": 0,
          "sheenRoughness": 1
        },
        "isHole": true
      },
      "extensions": {
        "KHR_materials_ior": {
          "ior": 2.3333333333333335
        },
        "KHR_materials_clearcoat": {
          "clearcoatFactor": 1,
          "clearcoatRoughnessFactor": 0.05
        }
      }
    },
    {
      "pbrMetallicRoughness": {
        "metallicFactor": 0.9,
        "roughnessFactor": 0.2
      },
      "alphaMode": "BLEND",
      "doubleSided": true,
      "extras": {
        "originalProperties": {
          "color": 16777215,
          "roughness": 0.2,
          "metalness": 0.9,
          "clearcoat": 1,
          "clearcoatRoughness": 0.05,
          "transmission": 0,
          "ior": 2.3333333333333335,
          "opacity": 1,
          "sheen": 0,
          "sheenRoughness": 1
        },
        "isHole": true
      },
      "extensions": {
        "KHR_materials_ior": {
          "ior": 2.3333333333333335
        },
        "KHR_materials_clearcoat": {
          "clearcoatFactor": 1,
          "clearcoatRoughnessFactor": 0.05
        }
      }
    },
    {
      "pbrMetallicRoughness": {
        "metallicFactor": 0.9,
        "roughnessFactor": 0.2
      },
      "alphaMode": "BLEND",
      "doubleSided": true,
      "extras": {
        "originalProperties": {
          "color": 16777215,
          "roughness": 0.2,
          "metalness": 0.9,
          "clearcoat": 1,
          "clearcoatRoughness": 0.05,
          "transmission": 0,
          "ior": 2.3333333333333335,
          "opacity": 1,
          "sheen": 0,
          "sheenRoughness": 1
        },
        "isHole": true
      },
      "extensions": {
        "KHR_materials_ior": {
          "ior": 2.3333333333333335
        },
        "KHR_materials_clearcoat": {
          "clearcoatFactor": 1,
          "clearcoatRoughnessFactor": 0.05
        }
      }
    },
    {
      "pbrMetallicRoughness": {
        "metallicFactor": 0.9,
        "roughnessFactor": 0.2
      },
      "alphaMode": "BLEND",
      "doubleSided": true,
      "extras": {
        "originalProperties": {
          "color": 16777215,
          "roughness": 0.2,
          "metalness": 0.9,
          "clearcoat": 1,
          "clearcoatRoughness": 0.05,
          "transmission": 0,
          "ior": 2.3333333333333335,
          "opacity": 1,
          "sheen": 0,
          "sheenRoughness": 1
        },
        "isHole": true
      },
      "extensions": {
        "KHR_materials_ior": {
          "ior": 2.3333333333333335
        },
        "KHR_materials_clearcoat": {
          "clearcoatFactor": 1,
          "clearcoatRoughnessFactor": 0.05
        }
      }
    },
    {
      "pbrMetallicRoughness": {
        "metallicFactor": 0.9,
        "roughnessFactor": 0.2
      },
      "alphaMode": "BLEND",
      "doubleSided": true,
      "extras": {
        "originalProperties": {
          "color": 16777215,
          "roughness": 0.2,
          "metalness": 0.9,
          "clearcoat": 1,
          "clearcoatRoughness": 0.05,
          "transmission": 0,
          "ior": 2.3333333333333335,
          "opacity": 1,
          "sheen": 0,
          "sheenRoughness": 1
        },
        "isHole": true
      },
      "extensions": {
        "KHR_materials_ior": {
          "ior": 2.3333333333333335
        },
        "KHR_materials_clearcoat": {
          "clearcoatFactor": 1,
          "clearcoatRoughnessFactor": 0.05
        }
      }
    },
    {
      "pbrMetallicRoughness": {
        "metallicFactor": 0.9,
        "roughnessFactor": 0.2
      },
      "alphaMode": "BLEND",
      "doubleSided": true,
      "extras": {
        "originalProperties": {
          "color": 16777215,
          "roughness": 0.2,
          "metalness": 0.9,
          "clearcoat": 1,
          "clearcoatRoughness": 0.05,
          "transmission": 0,
          "ior": 2.3333333333333335,
          "opacity": 1,
          "sheen": 0,
          "sheenRoughness": 1
        },
        "isHole": true
      },
      "extensions": {
        "KHR_materials_ior": {
          "ior": 2.3333333333333335
        },
        "KHR_materials_clearcoat": {
          "clearcoatFactor": 1,
          "clearcoatRoughnessFactor": 0.05
        }
      }
    },
    {
      "pbrMetallicRoughness": {
        "metallicFactor": 0.9,
        "roughnessFactor": 0.2
      },
      "alphaMode": "BLEND",
      "doubleSided": true,
      "extras": {
        "originalProperties": {
          "color": 16777215,
          "roughness": 0.2,
          "metalness": 0.9,
          "clearcoat": 1,
          "clearcoatRoughness": 0.05,
          "transmission": 0,
          "ior": 2.3333333333333335,
          "opacity": 1,
          "sheen": 0,
          "sheenRoughness": 1
        },
        "isHole": true
      },
      "extensions": {
        "KHR_materials_ior": {
          "ior": 2.3333333333333335
        },
        "KHR_materials_clearcoat": {
          "clearcoatFactor": 1,
          "clearcoatRoughnessFactor": 0.05
        }
      }
    }
  ],
  "meshes": [
    {
      "primitives": [
        {
          "mode": 4,
          "attributes": {
            "POSITION": 0,
            "TEXCOORD_0": 1,
            "NORMAL": 2
          },
          "material": 0
        }
      ]
    },
    {
      "primitives": [
        {
          "mode": 4,
          "attributes": {
            "POSITION": 3,
            "TEXCOORD_0": 4,
            "NORMAL": 5
          },
          "material": 1
        }
      ]
    },
    {
      "primitives": [
        {
          "mode": 4,
          "attributes": {
            "POSITION": 6,
            "TEXCOORD_0": 7,
            "NORMAL": 8
          },
          "material": 2
        }
      ]
    },
    {
      "primitives": [
        {
          "mode": 4,
          "attributes": {
            "POSITION": 9,
            "TEXCOORD_0": 10,
            "NORMAL": 11
          },
          "material": 3
        }
      ]
    },
    {
      "primitives": [
        {
          "mode": 4,
          "attributes": {
            "POSITION": 12,
            "TEXCOORD_0": 13,
            "NORMAL": 14
          },
          "material": 4
        }
      ]
    },
    {
      "primitives": [
        {
          "mode": 4,
          "attributes": {
            "POSITION": 15,
            "TEXCOORD_0": 16,
            "NORMAL": 17
          },
          "material": 5
        }
      ]
    },
    {
      "primitives": [
        {
          "mode": 4,
          "attributes": {
            "POSITION": 18,
            "TEXCOORD_0": 19,
            "NORMAL": 20
          },
          "material": 6
        }
      ]
    },
    {
      "primitives": [
        {
          "mode": 4,
          "attributes": {
            "POSITION": 21,
            "TEXCOORD_0": 22,
            "NORMAL": 23
          },
          "material": 7
        }
      ]
    }
  ],
  "extensionsUsed": [
    "KHR_materials_ior",
    "KHR_materials_clearcoat"
  ]
}